<svg xmlns="http://www.w3.org/2000/svg" xmlns:xlink="http://www.w3.org/1999/xlink" width="50" zoomAndPan="magnify" viewBox="0 0 37.5 37.499999" height="50" preserveAspectRatio="xMidYMid meet" version="1.0"><defs><clipPath id="53e70e4515"><path d="M 7.929688 0 L 29.109375 0 L 29.109375 18.503906 L 7.929688 18.503906 Z M 7.929688 0 " clip-rule="nonzero"/></clipPath><clipPath id="af89bc5074"><path d="M 18.503906 18.503906 L 29.078125 0 L 7.929688 0 Z M 18.503906 18.503906 " clip-rule="nonzero"/></clipPath><clipPath id="2e8f3d1db9"><path d="M 7.890625 18.5 L 29.070312 18.5 L 29.070312 37.003906 L 7.890625 37.003906 Z M 7.890625 18.5 " clip-rule="nonzero"/></clipPath><clipPath id="bf0c27a51a"><path d="M 18.496094 18.5 L 7.921875 37.003906 L 29.070312 37.003906 Z M 18.496094 18.5 " clip-rule="nonzero"/></clipPath><clipPath id="4ac6d7670b"><path d="M 18.5 7.929688 L 37 7.929688 L 37 29.109375 L 18.5 29.109375 Z M 18.5 7.929688 " clip-rule="nonzero"/></clipPath><clipPath id="9b80089b7c"><path d="M 18.5 18.503906 L 37 29.078125 L 37 7.929688 Z M 18.5 18.503906 " clip-rule="nonzero"/></clipPath><clipPath id="5c624ea69a"><path d="M 0 7.894531 L 18.5 7.894531 L 18.5 29.070312 L 0 29.070312 Z M 0 7.894531 " clip-rule="nonzero"/></clipPath><clipPath id="b8f0d937e8"><path d="M 18.5 18.5 L 0 7.925781 L 0 29.070312 Z M 18.5 18.5 " clip-rule="nonzero"/></clipPath><clipPath id="ec99934c08"><path d="M 0 7.910156 L 8.464844 7.910156 L 8.464844 29.070312 L 0 29.070312 Z M 0 7.910156 " clip-rule="nonzero"/></clipPath><clipPath id="fccc2e019d"><path d="M 8.464844 18.496094 L 0 7.925781 L 0 29.070312 Z M 8.464844 18.496094 " clip-rule="nonzero"/></clipPath><clipPath id="f39266a93c"><path d="M 28.535156 7.929688 L 37 7.929688 L 37 29.09375 L 28.535156 29.09375 Z M 28.535156 7.929688 " clip-rule="nonzero"/></clipPath><clipPath id="4609e1cacc"><path d="M 28.535156 18.503906 L 37 29.078125 L 37 7.929688 Z M 28.535156 18.503906 " clip-rule="nonzero"/></clipPath><clipPath id="0b168efaf0"><path d="M 7.910156 28.539062 L 29.070312 28.539062 L 29.070312 37 L 7.910156 37 Z M 7.910156 28.539062 " clip-rule="nonzero"/></clipPath><clipPath id="677806cd63"><path d="M 18.496094 28.539062 L 7.921875 37 L 29.070312 37 Z M 18.496094 28.539062 " clip-rule="nonzero"/></clipPath><clipPath id="aaa64541aa"><path d="M 7.929688 0 L 29.089844 0 L 29.089844 8.464844 L 7.929688 8.464844 Z M 7.929688 0 " clip-rule="nonzero"/></clipPath><clipPath id="25aed4e65a"><path d="M 18.503906 8.464844 L 29.078125 0 L 7.929688 0 Z M 18.503906 8.464844 " clip-rule="nonzero"/></clipPath><clipPath id="bb72c30c51"><path d="M 2 2 L 17 2 L 17 17 L 2 17 Z M 2 2 " clip-rule="nonzero"/></clipPath><clipPath id="31fecc9dcb"><path d="M 2.644531 6.269531 L 7.074219 2.132812 L 18.511719 14.375 L 14.085938 18.511719 Z M 2.644531 6.269531 " clip-rule="nonzero"/></clipPath><clipPath id="094a467af0"><path d="M 16.289062 16.433594 L 7.074219 2.132812 L 2.644531 6.269531 Z M 16.289062 16.433594 " clip-rule="nonzero"/></clipPath><clipPath id="47c6fe4e16"><path d="M 20 20 L 35 20 L 35 35 L 20 35 Z M 20 20 " clip-rule="nonzero"/></clipPath><clipPath id="aaec1a6dd8"><path d="M 34.625 30.339844 L 30.339844 34.625 L 18.492188 22.777344 L 22.777344 18.492188 Z M 34.625 30.339844 " clip-rule="nonzero"/></clipPath><clipPath id="445b384bef"><path d="M 20.640625 20.644531 L 30.339844 34.625 L 34.625 30.339844 Z M 20.640625 20.644531 " clip-rule="nonzero"/></clipPath><clipPath id="5b39073e9e"><path d="M 2 20 L 17 20 L 17 35 L 2 35 Z M 2 20 " clip-rule="nonzero"/></clipPath><clipPath id="797173503c"><path d="M 6.796875 34.363281 L 2.511719 30.078125 L 14.359375 18.230469 L 18.644531 22.515625 Z M 6.796875 34.363281 " clip-rule="nonzero"/></clipPath><clipPath id="652cbab2a2"><path d="M 16.492188 20.382812 L 2.511719 30.078125 L 6.796875 34.363281 Z M 16.492188 20.382812 " clip-rule="nonzero"/></clipPath><clipPath id="6b8b173ba8"><path d="M 20 2 L 35 2 L 35 17 L 20 17 Z M 20 2 " clip-rule="nonzero"/></clipPath><clipPath id="55a3d30118"><path d="M 30.339844 2.382812 L 34.625 6.664062 L 22.777344 18.511719 L 18.492188 14.226562 Z M 30.339844 2.382812 " clip-rule="nonzero"/></clipPath><clipPath id="5060de337e"><path d="M 20.644531 16.363281 L 34.625 6.664062 L 30.339844 2.382812 Z M 20.644531 16.363281 " clip-rule="nonzero"/></clipPath><clipPath id="433d70838d"><path d="M 2 2 L 8 2 L 8 7 L 2 7 Z M 2 2 " clip-rule="nonzero"/></clipPath><clipPath id="0de49bf9f9"><path d="M 2.636719 6.195312 L 7.136719 2.144531 L 9.269531 4.511719 L 4.765625 8.5625 Z M 2.636719 6.195312 " clip-rule="nonzero"/></clipPath><clipPath id="6d1efeab20"><path d="M 7.015625 6.539062 L 7.132812 2.148438 L 2.636719 6.195312 Z M 7.015625 6.539062 " clip-rule="nonzero"/></clipPath><clipPath id="4e7fd286fe"><path d="M 2 29 L 7 29 L 7 35 L 2 35 Z M 2 29 " clip-rule="nonzero"/></clipPath><clipPath id="dbb9e17d9b"><path d="M 6.84375 34.355469 L 2.503906 30.015625 L 4.785156 27.734375 L 9.125 32.074219 Z M 6.84375 34.355469 " clip-rule="nonzero"/></clipPath><clipPath id="aceeec7475"><path d="M 6.957031 29.90625 L 2.507812 30.019531 L 6.84375 34.355469 Z M 6.957031 29.90625 " clip-rule="nonzero"/></clipPath><clipPath id="5d85ce8ea3"><path d="M 30 2 L 35 2 L 35 7 L 30 7 Z M 30 2 " clip-rule="nonzero"/></clipPath><clipPath id="824d828c44"><path d="M 30.285156 2.382812 L 34.625 6.722656 L 32.34375 9.003906 L 28.003906 4.664062 Z M 30.285156 2.382812 " clip-rule="nonzero"/></clipPath><clipPath id="8b79f5e4ef"><path d="M 30.171875 6.832031 L 34.621094 6.71875 L 30.285156 2.382812 Z M 30.171875 6.832031 " clip-rule="nonzero"/></clipPath><clipPath id="3bfc4028f0"><path d="M 30 30 L 35 30 L 35 35 L 30 35 Z M 30 30 " clip-rule="nonzero"/></clipPath><clipPath id="c5a476fa6f"><path d="M 34.621094 30.34375 L 30.335938 34.628906 L 28.085938 32.375 L 32.367188 28.09375 Z M 34.621094 30.34375 " clip-rule="nonzero"/></clipPath><clipPath id="75b268de7d"><path d="M 30.230469 30.234375 L 30.339844 34.625 L 34.621094 30.34375 Z M 30.230469 30.234375 " clip-rule="nonzero"/></clipPath></defs><g clip-path="url(#53e70e4515)"><g clip-path="url(#af89bc5074)"><path fill="#745da3" d="M 7.929688 0 L 29.109375 0 L 29.109375 18.503906 L 7.929688 18.503906 Z M 7.929688 0 " fill-opacity="1" fill-rule="nonzero"/></g></g><g clip-path="url(#2e8f3d1db9)"><g clip-path="url(#bf0c27a51a)"><path fill="#745da3" d="M 29.070312 37.003906 L 7.890625 37.003906 L 7.890625 18.5 L 29.070312 18.5 Z M 29.070312 37.003906 " fill-opacity="1" fill-rule="nonzero"/></g></g><g clip-path="url(#4ac6d7670b)"><g clip-path="url(#9b80089b7c)"><path fill="#745da3" d="M 37 7.929688 L 37 29.109375 L 18.5 29.109375 L 18.5 7.929688 Z M 37 7.929688 " fill-opacity="1" fill-rule="nonzero"/></g></g><g clip-path="url(#5c624ea69a)"><g clip-path="url(#b8f0d937e8)"><path fill="#745da3" d="M 0 29.070312 L 0 7.894531 L 18.5 7.894531 L 18.5 29.070312 Z M 0 29.070312 " fill-opacity="1" fill-rule="nonzero"/></g></g><g clip-path="url(#ec99934c08)"><g clip-path="url(#fccc2e019d)"><path fill="#523390" d="M 0 29.070312 L 0 7.910156 L 8.464844 7.910156 L 8.464844 29.070312 Z M 0 29.070312 " fill-opacity="1" fill-rule="nonzero"/></g></g><g clip-path="url(#f39266a93c)"><g clip-path="url(#4609e1cacc)"><path fill="#523390" d="M 37 7.929688 L 37 29.09375 L 28.535156 29.09375 L 28.535156 7.929688 Z M 37 7.929688 " fill-opacity="1" fill-rule="nonzero"/></g></g><g clip-path="url(#0b168efaf0)"><g clip-path="url(#677806cd63)"><path fill="#523390" d="M 29.070312 37 L 7.910156 37 L 7.910156 28.539062 L 29.070312 28.539062 Z M 29.070312 37 " fill-opacity="1" fill-rule="nonzero"/></g></g><g clip-path="url(#aaa64541aa)"><g clip-path="url(#25aed4e65a)"><path fill="#523390" d="M 7.929688 0 L 29.089844 0 L 29.089844 8.464844 L 7.929688 8.464844 Z M 7.929688 0 " fill-opacity="1" fill-rule="nonzero"/></g></g><g clip-path="url(#bb72c30c51)"><g clip-path="url(#31fecc9dcb)"><g clip-path="url(#094a467af0)"><path fill="#745da3" d="M 2.644531 6.269531 L 7.074219 2.132812 L 18.511719 14.375 L 14.085938 18.511719 Z M 2.644531 6.269531 " fill-opacity="1" fill-rule="nonzero"/></g></g></g><g clip-path="url(#47c6fe4e16)"><g clip-path="url(#aaec1a6dd8)"><g clip-path="url(#445b384bef)"><path fill="#745da3" d="M 34.625 30.339844 L 30.339844 34.625 L 18.492188 22.777344 L 22.777344 18.492188 Z M 34.625 30.339844 " fill-opacity="1" fill-rule="nonzero"/></g></g></g><g clip-path="url(#5b39073e9e)"><g clip-path="url(#797173503c)"><g clip-path="url(#652cbab2a2)"><path fill="#745da3" d="M 6.796875 34.363281 L 2.511719 30.078125 L 14.359375 18.230469 L 18.644531 22.515625 Z M 6.796875 34.363281 " fill-opacity="1" fill-rule="nonzero"/></g></g></g><g clip-path="url(#6b8b173ba8)"><g clip-path="url(#55a3d30118)"><g clip-path="url(#5060de337e)"><path fill="#745da3" d="M 30.339844 2.382812 L 34.625 6.664062 L 22.777344 18.511719 L 18.492188 14.226562 Z M 30.339844 2.382812 " fill-opacity="1" fill-rule="nonzero"/></g></g></g><g clip-path="url(#433d70838d)"><g clip-path="url(#0de49bf9f9)"><g clip-path="url(#6d1efeab20)"><path fill="#523390" d="M 2.636719 6.195312 L 7.136719 2.144531 L 9.269531 4.511719 L 4.765625 8.5625 Z M 2.636719 6.195312 " fill-opacity="1" fill-rule="nonzero"/></g></g></g><g clip-path="url(#4e7fd286fe)"><g clip-path="url(#dbb9e17d9b)"><g clip-path="url(#aceeec7475)"><path fill="#523390" d="M 6.84375 34.355469 L 2.503906 30.015625 L 4.785156 27.734375 L 9.125 32.074219 Z M 6.84375 34.355469 " fill-opacity="1" fill-rule="nonzero"/></g></g></g><g clip-path="url(#5d85ce8ea3)"><g clip-path="url(#824d828c44)"><g clip-path="url(#8b79f5e4ef)"><path fill="#523390" d="M 30.285156 2.382812 L 34.625 6.722656 L 32.34375 9.003906 L 28.003906 4.664062 Z M 30.285156 2.382812 " fill-opacity="1" fill-rule="nonzero"/></g></g></g><g clip-path="url(#3bfc4028f0)"><g clip-path="url(#c5a476fa6f)"><g clip-path="url(#75b268de7d)"><path fill="#523390" d="M 34.621094 30.34375 L 30.335938 34.628906 L 28.085938 32.375 L 32.367188 28.09375 Z M 34.621094 30.34375 " fill-opacity="1" fill-rule="nonzero"/></g></g></g></svg>